<?xml version="1.0" standalone="no"?>
<!DOCTYPE svg PUBLIC "-//W3C//DTD SVG 20010904//EN"
 "http://www.w3.org/TR/2001/REC-SVG-20010904/DTD/svg10.dtd">
<svg version="1.0" xmlns="http://www.w3.org/2000/svg"
 width="992.000000pt" height="992.000000pt" viewBox="0 0 992.000000 992.000000"
 preserveAspectRatio="xMidYMid meet">
<metadata>
Created by potrace 1.14, written by Peter Selinger 2001-2017
</metadata>
<g transform="translate(0.000000,992.000000) scale(0.100000,-0.100000)"
fill="#000000" stroke="none">
<path d="M5675 9342 c-2 -2 -19 -6 -37 -8 -33 -3 -86 -11 -123 -19 -11 -2 -38
-7 -60 -10 -22 -4 -48 -11 -57 -16 -10 -5 -18 -8 -18 -5 0 17 -306 -113 -385
-164 -16 -11 -43 -27 -59 -36 -29 -16 -42 -26 -75 -54 -9 -8 -34 -28 -55 -44
-118 -89 -285 -290 -362 -436 -16 -30 -31 -57 -34 -60 -14 -12 -113 -260 -135
-337 -25 -89 -65 -296 -69 -359 -1 -34 -5 -65 -8 -70 -4 -8 -3 -379 1 -379 1
0 4 -20 6 -45 9 -97 23 -178 46 -270 11 -41 21 -82 23 -90 2 -8 11 -35 20 -60
9 -25 19 -52 21 -60 8 -32 75 -178 122 -265 25 -46 96 -150 105 -153 4 -2 8
-8 8 -14 0 -5 6 -15 13 -22 6 -8 32 -37 57 -66 72 -85 171 -175 265 -240 28
-19 53 -39 56 -43 10 -14 280 -147 298 -147 9 0 21 -4 27 -9 11 -11 200 -60
258 -67 22 -3 43 -7 47 -9 27 -17 381 -24 514 -11 108 11 130 14 130 16 0 1
11 3 25 5 60 8 163 35 245 64 33 12 65 23 71 24 7 2 18 8 25 14 8 5 26 13 40
16 14 4 42 18 63 32 20 14 40 25 44 25 15 0 189 119 237 162 49 43 163 158
193 194 135 162 264 409 317 604 1 3 7 25 14 50 14 49 17 61 31 135 6 28 12
61 15 75 7 34 15 111 21 195 3 39 6 79 7 90 2 11 -1 26 -6 33 -6 7 -6 12 0 12
10 0 11 35 1 45 -2 3 -2 25 2 50 4 25 4 47 1 50 -3 3 -6 22 -7 43 -4 95 -26
249 -48 340 -4 12 -8 30 -10 40 -10 44 -52 173 -74 227 -29 71 -111 244 -123
259 -5 6 -29 43 -55 81 -25 39 -50 72 -55 73 -5 2 -9 9 -9 16 0 28 -289 306
-319 306 -6 0 -11 4 -11 8 0 12 -202 126 -290 163 -64 27 -163 60 -220 74
-124 29 -154 35 -157 32 -2 -3 -25 0 -51 6 -45 9 -448 18 -457 9z m345 -636
c30 -3 71 -11 90 -17 19 -5 46 -12 59 -15 25 -5 150 -63 186 -86 46 -30 113
-85 154 -128 45 -47 126 -163 150 -215 7 -17 18 -39 23 -49 17 -32 57 -156 51
-156 -3 0 -1 -6 5 -13 6 -7 14 -28 17 -47 3 -18 7 -36 9 -39 2 -3 7 -28 10
-55 4 -27 9 -52 10 -55 17 -28 29 -391 15 -466 -4 -22 -10 -62 -13 -90 -6 -45
-13 -82 -30 -154 -23 -98 -112 -315 -136 -331 -4 -3 -14 -19 -23 -36 -9 -17
-39 -55 -67 -85 -27 -29 -50 -56 -50 -61 0 -4 -4 -8 -9 -8 -5 0 -16 -6 -23
-13 -46 -44 -131 -97 -208 -131 -49 -22 -181 -54 -207 -51 -13 1 -23 -1 -23
-4 0 -5 -228 -7 -240 -2 -3 1 -25 4 -50 5 -197 14 -434 158 -556 339 -16 23
-32 44 -37 45 -4 2 -5 8 -1 13 3 5 0 9 -6 9 -6 0 -8 5 -5 10 3 6 3 10 -2 10
-9 0 -58 101 -55 113 1 4 -2 7 -8 7 -6 0 -9 3 -8 8 0 4 -2 14 -5 22 -12 28
-46 145 -51 170 -2 14 -7 41 -10 60 -13 76 -16 97 -22 143 -13 101 -6 380 11
467 3 14 8 45 11 70 3 25 8 49 11 53 3 5 6 18 8 30 5 43 68 217 78 217 6 0 8
3 4 6 -14 14 122 228 163 257 11 8 18 16 16 18 -14 13 239 183 256 173 5 -3 8
-1 8 3 0 7 72 32 100 35 3 0 14 4 25 8 12 4 50 11 85 15 36 4 66 8 67 9 5 4
169 -2 223 -8z"/>
<path d="M129 9260 c-6 -4 -7 -9 -2 -11 8 -3 33 -43 118 -188 9 -14 367 -610
433 -718 12 -21 26 -48 32 -60 5 -11 14 -24 20 -28 5 -3 17 -21 25 -38 9 -18
21 -41 28 -52 7 -11 57 -94 111 -185 54 -91 106 -173 114 -182 8 -10 11 -18 7
-18 -4 0 -1 -8 7 -17 8 -10 73 -115 143 -233 70 -118 135 -223 143 -232 8 -10
11 -18 6 -18 -5 0 -4 -4 1 -8 6 -4 23 -28 38 -53 l26 -46 0 -239 c0 -132 1
-243 2 -249 1 -5 0 -14 -1 -20 -7 -32 -6 -56 2 -61 4 -3 6 -10 2 -15 -5 -8 -8
-356 -3 -384 1 -5 0 -14 -1 -20 -7 -32 -6 -56 2 -61 4 -3 6 -10 2 -15 -9 -15
-10 -109 -1 -109 5 0 5 -5 1 -12 -9 -14 -8 -103 1 -118 3 -5 1 -10 -5 -10 -6
0 -9 -4 -6 -9 8 -13 52 -19 68 -10 8 4 20 4 28 -1 7 -4 23 -5 34 0 12 4 30 4
40 0 11 -3 37 -3 58 0 21 4 41 4 44 -1 2 -4 16 -4 29 1 14 5 25 6 25 2 0 -5
23 -6 50 -2 28 4 53 3 56 -1 3 -5 16 -4 29 1 14 5 25 6 25 1 0 -5 15 -5 34 -1
19 4 40 4 47 0 7 -5 22 -5 34 0 11 4 28 4 37 -1 11 -6 19 -5 23 1 4 6 13 7 23
2 18 -9 59 -8 68 1 4 3 6 300 6 659 l0 653 144 238 c79 132 144 243 144 248 0
5 5 9 10 9 6 0 10 5 10 12 0 6 11 25 23 42 13 17 26 36 28 41 6 15 72 128 134
229 30 49 55 93 55 97 0 5 4 9 9 9 5 0 12 8 15 18 3 9 12 26 19 37 13 21 160
265 188 313 24 40 279 462 300 497 10 17 26 44 35 60 9 17 20 32 23 35 4 3 13
20 20 38 8 17 17 32 21 32 4 0 11 8 14 18 6 17 11 26 54 93 12 20 22 38 22 41
0 2 -188 4 -417 4 l-417 -1 -35 -57 c-58 -92 -75 -123 -73 -130 1 -5 -2 -8 -8
-8 -5 0 -10 -7 -10 -15 0 -8 -4 -15 -8 -15 -4 0 -13 -12 -19 -27 -15 -37 -46
-87 -56 -91 -4 -2 -5 -8 -1 -13 3 -5 1 -9 -4 -9 -4 0 -18 -19 -31 -42 -12 -24
-26 -50 -31 -58 -40 -61 -390 -664 -390 -671 0 -5 -4 -9 -9 -9 -5 0 -13 -9
-16 -21 -4 -11 -20 -40 -36 -64 -16 -24 -29 -47 -29 -51 0 -5 -11 -22 -24 -39
-23 -28 -25 -29 -33 -10 -4 11 -45 82 -90 157 -46 75 -83 141 -83 147 0 6 -4
11 -8 11 -5 0 -16 15 -25 33 -9 17 -33 59 -52 92 -20 33 -39 67 -42 75 -4 8
-11 20 -15 25 -9 10 -151 249 -202 338 -13 23 -55 94 -93 157 -38 63 -93 156
-122 206 l-54 90 -413 1 c-227 0 -418 -3 -425 -7z"/>
<path d="M6098 4226 c-1 -2 -34 -6 -73 -10 -126 -12 -312 -50 -370 -76 -11 -4
-42 -16 -70 -26 -167 -60 -362 -184 -508 -324 -89 -85 -237 -272 -237 -299 0
-5 -6 -14 -12 -18 -7 -4 -22 -26 -33 -48 -11 -22 -24 -43 -28 -46 -5 -3 -9
-10 -9 -15 -1 -5 -14 -38 -30 -73 -15 -35 -31 -74 -34 -87 -3 -13 -10 -24 -15
-24 -5 0 -8 -3 -7 -7 2 -7 -13 -60 -48 -170 -7 -23 -15 -53 -18 -67 -3 -14
-12 -61 -20 -103 -28 -136 -35 -223 -35 -403 0 -124 5 -245 9 -245 1 0 3 -18
5 -40 2 -22 11 -78 20 -125 9 -47 17 -93 18 -102 1 -10 4 -18 7 -18 3 0 6 -8
7 -17 1 -10 3 -25 5 -33 4 -12 25 -85 33 -110 1 -3 7 -18 13 -33 7 -16 12 -30
12 -33 0 -3 7 -21 17 -42 9 -20 17 -39 18 -42 8 -30 116 -223 127 -228 4 -2 8
-8 8 -13 0 -11 72 -109 120 -164 204 -233 495 -414 769 -481 9 -2 34 -8 56
-14 22 -5 63 -13 90 -16 28 -4 52 -8 55 -9 14 -9 178 -19 295 -19 272 0 509
43 693 126 26 12 49 22 52 23 32 8 240 133 268 161 7 8 16 14 20 14 7 0 64 50
139 121 24 23 64 66 90 97 27 32 51 59 56 60 4 2 7 10 7 17 0 8 6 18 13 22 15
10 67 89 67 102 0 6 6 14 13 18 10 7 92 165 117 228 18 46 23 60 22 68 -1 4 2
7 8 7 5 0 10 8 10 18 0 11 9 45 20 78 12 32 22 70 24 84 2 14 9 45 16 70 8 25
13 48 12 52 -1 4 3 31 8 60 17 86 24 193 24 353 0 154 -10 287 -30 393 -11 57
-15 78 -20 94 -3 10 -8 30 -10 45 -9 48 -44 155 -80 243 -19 47 -37 93 -39
104 -3 10 -10 26 -18 35 -7 9 -19 30 -27 46 -8 17 -26 48 -39 70 -14 22 -26
42 -26 45 0 3 -12 21 -28 41 -15 20 -27 41 -27 47 0 6 -3 12 -7 14 -5 2 -33
32 -63 68 -53 64 -141 152 -197 198 -57 47 -131 102 -138 102 -4 0 -20 9 -35
20 -41 29 -166 93 -235 119 -33 13 -69 27 -80 32 -16 6 -84 27 -115 34 -49 11
-88 19 -100 19 -8 1 -19 4 -25 7 -5 4 -20 5 -32 4 -13 -1 -23 1 -23 4 0 3 -19
7 -43 8 -92 5 -375 11 -379 9z m267 -640 c138 -17 283 -68 346 -122 8 -8 20
-14 25 -14 6 0 44 -32 86 -70 66 -61 141 -157 186 -240 22 -39 73 -170 78
-198 3 -14 9 -32 13 -41 5 -9 11 -29 14 -46 3 -16 8 -41 11 -55 3 -14 8 -36
11 -50 14 -63 28 -225 28 -325 0 -84 -16 -300 -23 -300 -1 0 -3 -9 -5 -19 -2
-11 -7 -31 -11 -45 -4 -14 -6 -30 -5 -34 1 -5 -8 -41 -21 -80 -12 -40 -21 -75
-20 -79 1 -5 -2 -8 -8 -8 -5 0 -10 -7 -10 -15 0 -19 -79 -179 -91 -183 -5 -2
-9 -8 -9 -14 0 -33 -177 -213 -236 -240 -13 -6 -24 -14 -24 -18 0 -22 -226
-100 -299 -103 -28 -1 -51 -5 -51 -8 0 -8 -255 -3 -292 5 -16 3 -38 8 -50 10
-88 17 -196 63 -278 119 -90 62 -218 204 -262 292 -8 17 -25 50 -38 75 -13 25
-26 54 -30 65 -31 80 -39 105 -34 105 3 0 2 6 -3 13 -4 6 -8 15 -9 20 -1 4 -3
10 -4 15 -1 4 -3 12 -4 17 -1 6 -5 26 -9 45 -25 127 -30 185 -31 355 0 161 7
257 25 343 16 82 20 96 30 137 22 85 94 255 112 263 4 2 7 8 7 14 0 39 205
268 239 268 5 0 11 4 13 8 9 23 185 104 250 116 15 2 32 7 36 10 5 3 38 8 73
12 35 3 65 7 66 8 4 4 160 -2 208 -8z"/>
<path d="M490 2432 c0 -1520 2 -1713 15 -1708 8 3 15 2 15 -2 0 -8 103 -7 124
1 8 3 17 3 20 0 8 -8 68 -8 89 0 9 3 19 2 23 -4 4 -7 10 -7 18 0 6 6 18 6 25
2 8 -5 26 -5 41 -1 15 4 33 5 39 1 7 -4 32 -5 57 -1 24 4 46 4 48 1 5 -8 64
-6 72 2 4 3 15 2 25 -3 12 -7 20 -7 24 0 4 7 11 8 18 2 20 -16 57 4 52 27 -2
11 1 23 6 26 5 4 6 11 2 18 -10 17 -10 1670 0 1685 5 6 6 12 1 12 -5 0 -9 56
-9 125 0 69 4 125 8 125 4 0 4 8 -1 18 -13 28 -9 245 6 250 6 2 12 -1 12 -7 0
-6 43 -79 95 -162 52 -83 95 -155 95 -160 0 -5 5 -9 10 -9 6 0 10 -5 10 -11 0
-5 20 -40 44 -77 64 -98 196 -313 196 -318 0 -3 5 -10 10 -17 6 -7 26 -37 45
-67 19 -30 54 -86 78 -125 132 -212 177 -286 177 -294 0 -5 4 -11 8 -13 5 -1
35 -46 67 -98 152 -248 184 -299 217 -350 30 -48 94 -152 131 -215 7 -11 14
-22 18 -25 10 -10 69 -111 69 -119 0 -5 4 -11 8 -13 5 -1 28 -34 51 -73 63
-105 65 -108 76 -120 16 -17 44 -25 50 -14 4 6 13 6 23 0 9 -5 26 -5 39 0 12
4 24 5 27 1 5 -8 64 -8 72 1 4 3 15 2 25 -4 13 -7 19 -6 19 1 0 7 6 8 17 2 9
-5 28 -6 43 -2 15 4 32 5 38 1 14 -8 88 -5 104 5 6 4 8 3 5 -3 -4 -7 7 -8 33
-3 22 4 42 5 45 2 8 -9 65 -8 65 1 0 5 4 6 9 2 16 -9 71 -13 71 -4 0 5 11 4
25 -1 16 -6 25 -6 25 0 0 5 6 7 13 4 10 -3 12 325 11 1698 -1 937 -2 1708 -3
1714 -1 8 -100 10 -343 9 -189 -1 -346 -3 -349 -4 -11 -2 -16 -35 -9 -61 4
-14 3 -35 -1 -47 -5 -12 -4 -25 0 -28 5 -3 6 -20 2 -38 -5 -18 -5 -41 -1 -52
4 -11 4 -30 -1 -42 -5 -12 -4 -25 0 -28 5 -3 6 -20 2 -38 -5 -18 -5 -41 -1
-52 4 -11 4 -30 -1 -42 -5 -12 -4 -25 0 -28 5 -3 6 -20 2 -38 -5 -18 -5 -41
-1 -52 4 -11 4 -30 -1 -42 -5 -12 -4 -25 0 -28 5 -3 6 -20 2 -38 -5 -18 -5
-41 -1 -52 4 -11 4 -30 -1 -42 -5 -12 -4 -25 0 -28 5 -3 6 -20 2 -38 -5 -18
-5 -41 -1 -52 4 -11 4 -30 -1 -42 -5 -12 -4 -25 0 -28 5 -3 6 -20 2 -38 -5
-18 -5 -41 -1 -52 4 -11 4 -30 -1 -42 -5 -12 -4 -25 0 -28 5 -3 6 -20 2 -38
-5 -18 -5 -41 -1 -52 4 -11 4 -30 -1 -42 -5 -12 -4 -25 0 -28 5 -3 6 -20 2
-38 -5 -18 -5 -41 -1 -52 4 -11 4 -30 -1 -42 -5 -12 -4 -25 0 -28 5 -3 6 -20
2 -38 -5 -18 -5 -41 -1 -52 4 -11 4 -30 -1 -42 -5 -12 -4 -25 0 -28 5 -3 6
-20 2 -38 -5 -18 -5 -41 -1 -52 4 -11 4 -30 -1 -42 -5 -12 -4 -25 0 -28 5 -3
6 -20 2 -38 -5 -18 -5 -41 -1 -52 4 -11 4 -29 0 -40 -4 -11 -6 -29 -4 -40 2
-11 4 -47 3 -80 0 -58 1 -121 3 -134 0 -3 -1 -10 -2 -16 -3 -16 -2 -120 2
-134 2 -8 -3 -16 -11 -19 -8 -3 -11 0 -7 7 4 6 3 11 -2 11 -5 0 -21 21 -36 48
-15 26 -57 95 -94 154 -37 59 -96 154 -131 210 -35 57 -74 119 -86 138 -13 19
-63 99 -111 177 -49 79 -101 162 -116 185 -15 24 -31 50 -35 58 -13 25 -176
285 -182 290 -3 3 -13 19 -22 35 -27 50 -101 170 -109 175 -4 3 -10 15 -14 28
-4 12 -12 22 -17 22 -5 0 -9 9 -9 19 0 11 -4 21 -9 23 -10 4 -181 277 -181
289 0 5 -4 9 -10 9 -5 0 -10 7 -10 15 0 8 -4 15 -8 15 -4 0 -13 12 -20 28 -6
15 -59 101 -116 192 l-104 165 -376 1 -376 0 0 -1714z"/>
<path d="M9307 1464 c-3 -3 -64 -6 -135 -5 -126 0 -130 0 -133 -22 -3 -16 -2
-511 1 -572 1 -5 -1 -27 -2 -48 -2 -21 0 -43 4 -50 3 -6 3 -19 -2 -28 -8 -13
-4 -18 15 -21 14 -3 25 -1 25 4 0 5 7 5 17 -1 10 -5 26 -5 40 0 12 4 24 5 27
1 5 -8 64 -8 72 1 4 3 15 2 25 -4 13 -7 19 -6 19 1 0 7 6 8 17 2 9 -5 28 -6
43 -2 15 4 32 5 38 1 14 -8 88 -5 104 5 6 4 8 3 5 -3 -4 -7 7 -8 33 -3 22 4
43 4 46 -1 2 -4 16 -4 29 1 13 5 26 6 29 2 5 -9 81 -6 96 3 6 3 10 2 10 -3 0
-5 14 -7 30 -4 l30 4 0 369 0 369 -107 -1 c-60 0 -112 0 -118 1 -5 1 -14 1
-20 0 -24 -5 -213 -3 -222 3 -6 4 -13 4 -16 1z"/>
</g>
</svg>
