<svg width="62" height="55" viewBox="0 0 62 55" fill="none" xmlns="http://www.w3.org/2000/svg">
<path d="M8.62 13.66V22H13.33V13.78L21.28 0.579999H16.03L11.05 9.04L6.04 0.579999H0.76L8.62 13.66ZM30.9098 11.38C30.9098 10.44 31.0098 9.53 31.2098 8.65C31.4298 7.77 31.7698 6.99 32.2298 6.31C32.6898 5.61 33.2898 5.06 34.0298 4.66C34.7698 4.24 35.6698 4.03 36.7298 4.03C37.7898 4.03 38.6898 4.24 39.4298 4.66C40.1698 5.06 40.7698 5.61 41.2298 6.31C41.6898 6.99 42.0198 7.77 42.2198 8.65C42.4398 9.53 42.5498 10.44 42.5498 11.38C42.5498 12.28 42.4398 13.16 42.2198 14.02C42.0198 14.86 41.6898 15.62 41.2298 16.3C40.7698 16.98 40.1698 17.53 39.4298 17.95C38.6898 18.35 37.7898 18.55 36.7298 18.55C35.6698 18.55 34.7698 18.35 34.0298 17.95C33.2898 17.53 32.6898 16.98 32.2298 16.3C31.7698 15.62 31.4298 14.86 31.2098 14.02C31.0098 13.16 30.9098 12.28 30.9098 11.38ZM26.1998 11.38C26.1998 12.94 26.4398 14.4 26.9198 15.76C27.3998 17.1 28.0898 18.27 28.9898 19.27C29.8898 20.27 30.9898 21.06 32.2898 21.64C33.6098 22.2 35.0898 22.48 36.7298 22.48C38.3898 22.48 39.8698 22.2 41.1698 21.64C42.4698 21.06 43.5698 20.27 44.4698 19.27C45.3698 18.27 46.0598 17.1 46.5398 15.76C47.0198 14.4 47.2598 12.94 47.2598 11.38C47.2598 9.78 47.0198 8.3 46.5398 6.94C46.0598 5.56 45.3698 4.36 44.4698 3.34C43.5698 2.32 42.4698 1.52 41.1698 0.939999C39.8698 0.36 38.3898 0.0699998 36.7298 0.0699998C35.0898 0.0699998 33.6098 0.36 32.2898 0.939999C30.9898 1.52 29.8898 2.32 28.9898 3.34C28.0898 4.36 27.3998 5.56 26.9198 6.94C26.4398 8.3 26.1998 9.78 26.1998 11.38ZM3.07 32.58V54H7.48V39.66H7.54L16.45 54H21.16V32.58H16.75V46.95H16.69L7.75 32.58H3.07ZM33.1363 43.38C33.1363 42.44 33.2363 41.53 33.4363 40.65C33.6563 39.77 33.9963 38.99 34.4563 38.31C34.9163 37.61 35.5163 37.06 36.2563 36.66C36.9963 36.24 37.8963 36.03 38.9563 36.03C40.0163 36.03 40.9163 36.24 41.6563 36.66C42.3963 37.06 42.9963 37.61 43.4563 38.31C43.9163 38.99 44.2463 39.77 44.4463 40.65C44.6663 41.53 44.7763 42.44 44.7763 43.38C44.7763 44.28 44.6663 45.16 44.4463 46.02C44.2463 46.86 43.9163 47.62 43.4563 48.3C42.9963 48.98 42.3963 49.53 41.6563 49.95C40.9163 50.35 40.0163 50.55 38.9563 50.55C37.8963 50.55 36.9963 50.35 36.2563 49.95C35.5163 49.53 34.9163 48.98 34.4563 48.3C33.9963 47.62 33.6563 46.86 33.4363 46.02C33.2363 45.16 33.1363 44.28 33.1363 43.38ZM28.4263 43.38C28.4263 44.94 28.6663 46.4 29.1463 47.76C29.6263 49.1 30.3163 50.27 31.2163 51.27C32.1163 52.27 33.2163 53.06 34.5163 53.64C35.8363 54.2 37.3163 54.48 38.9563 54.48C40.6163 54.48 42.0963 54.2 43.3963 53.64C44.6963 53.06 45.7963 52.27 46.6963 51.27C47.5963 50.27 48.2863 49.1 48.7663 47.76C49.2463 46.4 49.4863 44.94 49.4863 43.38C49.4863 41.78 49.2463 40.3 48.7663 38.94C48.2863 37.56 47.5963 36.36 46.6963 35.34C45.7963 34.32 44.6963 33.52 43.3963 32.94C42.0963 32.36 40.6163 32.07 38.9563 32.07C37.3163 32.07 35.8363 32.36 34.5163 32.94C33.2163 33.52 32.1163 34.32 31.2163 35.34C30.3163 36.36 29.6263 37.56 29.1463 38.94C28.6663 40.3 28.4263 41.78 28.4263 43.38ZM56.4859 49.38V54H61.1959V49.38H56.4859Z" fill="#333536"/>
</svg>
