<?xml version="1.0" encoding="iso-8859-1"?>
<!-- Generator: Adobe Illustrator 19.0.0, SVG Export Plug-In . SVG Version: 6.00 Build 0)  -->
<svg version="1.1" id="Capa_1" xmlns="http://www.w3.org/2000/svg" xmlns:xlink="http://www.w3.org/1999/xlink" x="0px" y="0px"
	 viewBox="0 0 480 480" style="enable-background:new 0 0 480 480;" xml:space="preserve">
<path style="fill-opacity: 0;" d="M240,8C111.87,8,8,111.87,8,240s103.87,232,232,232s232-103.87,232-232S368.13,8,240,8z
	 M303.768,375.768L168,240l135.768-135.768L168,240L303.768,375.768z"/>
<g>
	<path style="fill:#323537;" d="M303.768,383.768c-2.122,0-4.156-0.844-5.656-2.344L162.344,245.656
		c-3.123-3.124-3.123-8.188,0-11.312L298.112,98.576c3.069-3.178,8.134-3.266,11.312-0.196c3.178,3.069,3.266,8.134,0.196,11.312
		c-0.064,0.067-0.13,0.132-0.196,0.196L179.312,240l130.112,130.112c3.124,3.125,3.123,8.19-0.002,11.314
		C307.923,382.925,305.889,383.768,303.768,383.768z"/>
</g>
<g>
</g>
<g>
</g>
<g>
</g>
<g>
</g>
<g>
</g>
<g>
</g>
<g>
</g>
<g>
</g>
<g>
</g>
<g>
</g>
<g>
</g>
<g>
</g>
<g>
</g>
<g>
</g>
<g>
</g>
</svg>
